<mxfile host="Electron" agent="Mozilla/5.0 (Windows NT 10.0; Win64; x64) AppleWebKit/537.36 (KHTML, like Gecko) draw.io/24.7.8 Chrome/128.0.6613.36 Electron/32.0.1 Safari/537.36" version="24.7.8">
  <diagram name="ページ1" id="GKhhoQQIBIWtIydKWZLs">
    <mxGraphModel dx="1292" dy="549" grid="1" gridSize="10" guides="1" tooltips="1" connect="1" arrows="1" fold="1" page="1" pageScale="1" pageWidth="827" pageHeight="1169" math="0" shadow="0">
      <root>
        <mxCell id="0" />
        <mxCell id="1" parent="0" />
        <mxCell id="YlwnluBW2KXH7HdDRIEg-5" style="edgeStyle=orthogonalEdgeStyle;rounded=0;orthogonalLoop=1;jettySize=auto;html=1;exitX=1;exitY=0.5;exitDx=0;exitDy=0;entryX=0;entryY=0.5;entryDx=0;entryDy=0;startArrow=classicThin;startFill=1;" edge="1" parent="1" source="YlwnluBW2KXH7HdDRIEg-2" target="YlwnluBW2KXH7HdDRIEg-4">
          <mxGeometry relative="1" as="geometry" />
        </mxCell>
        <mxCell id="YlwnluBW2KXH7HdDRIEg-2" value="フロントエンド&lt;div&gt;Next&lt;/div&gt;" style="whiteSpace=wrap;html=1;aspect=fixed;fillColor=#dae8fc;strokeColor=#6c8ebf;" vertex="1" parent="1">
          <mxGeometry x="130" y="190" width="110" height="110" as="geometry" />
        </mxCell>
        <mxCell id="YlwnluBW2KXH7HdDRIEg-13" style="edgeStyle=orthogonalEdgeStyle;rounded=0;orthogonalLoop=1;jettySize=auto;html=1;entryX=0;entryY=0.5;entryDx=0;entryDy=0;entryPerimeter=0;" edge="1" parent="1" source="YlwnluBW2KXH7HdDRIEg-4" target="YlwnluBW2KXH7HdDRIEg-9">
          <mxGeometry relative="1" as="geometry">
            <mxPoint x="590" y="245" as="targetPoint" />
          </mxGeometry>
        </mxCell>
        <mxCell id="YlwnluBW2KXH7HdDRIEg-4" value="バックエンド&lt;div&gt;echo&lt;/div&gt;" style="whiteSpace=wrap;html=1;aspect=fixed;fillColor=#f8cecc;strokeColor=#b85450;" vertex="1" parent="1">
          <mxGeometry x="380" y="190" width="110" height="110" as="geometry" />
        </mxCell>
        <mxCell id="YlwnluBW2KXH7HdDRIEg-8" value="websocket&amp;nbsp;&lt;div&gt;http&lt;/div&gt;" style="text;html=1;align=center;verticalAlign=middle;whiteSpace=wrap;rounded=0;" vertex="1" parent="1">
          <mxGeometry x="280" y="260" width="60" height="30" as="geometry" />
        </mxCell>
        <mxCell id="YlwnluBW2KXH7HdDRIEg-9" value="postgress" style="shape=cylinder3;whiteSpace=wrap;html=1;boundedLbl=1;backgroundOutline=1;size=15;fillColor=#d5e8d4;strokeColor=#82b366;" vertex="1" parent="1">
          <mxGeometry x="610" y="190" width="110" height="110" as="geometry" />
        </mxCell>
        <mxCell id="YlwnluBW2KXH7HdDRIEg-14" value="" style="whiteSpace=wrap;html=1;aspect=fixed;" vertex="1" parent="1">
          <mxGeometry x="610" y="380" width="110" height="110" as="geometry" />
        </mxCell>
        <mxCell id="YlwnluBW2KXH7HdDRIEg-15" value="チャット履歴&lt;div&gt;ユーザーデータ&lt;/div&gt;" style="text;html=1;align=center;verticalAlign=middle;whiteSpace=wrap;rounded=0;" vertex="1" parent="1">
          <mxGeometry x="590" y="130" width="160" height="60" as="geometry" />
        </mxCell>
      </root>
    </mxGraphModel>
  </diagram>
</mxfile>
